<svg id="Capa_1" enable-background="new 0 0 512 512" height="512" viewBox="0 0 512 512" width="512" xmlns="http://www.w3.org/2000/svg"><path d="m463.241 187.567c-5.132 2.934-10.998 4.794-17.309 5.24-7.087.5-13.874-.847-19.887-3.617v.001c.05-2.837.052-5.693-.012-8.573-2.383-107.887-66.684-180.618-170.033-180.618s-167.65 72.731-170.033 180.618c-.063 2.879-.062 5.735-.012 8.572v-.001c-6.014 2.771-12.8 4.118-19.887 3.617-6.311-.446-12.176-2.306-17.308-5.24-10.217 22.501 7.773 70.074 48.947 67.731 15.543 45.057 44.441 81.723 74.397 107.498 0 0 34.657 30.668 83.608 30.668s84.186-30.668 84.186-30.668c29.956-25.775 58.854-62.441 74.397-107.498 41.174 2.345 59.163-45.229 48.946-67.73z" fill="#e7e7e7"/><path d="m480.392 137.819c1.593 3.833 2.614 7.973 2.928 12.332 1.588 21.989-15.151 41.087-37.388 42.656-7.087.501-13.874-.847-19.887-3.617.05-2.837.052-5.693-.012-8.572-1.157-52.393-16.92-96.492-44.663-127.999 6.702-9.797 17.711-16.571 30.567-17.479 19.039-1.344 35.924 10.603 41.385 27.866 4.375-2.035 9.19-3.332 14.301-3.693 22.236-1.57 41.549 14.983 43.137 36.971 1.416 19.605-11.741 36.899-30.368 41.535z" fill="#ff4755"/><path d="m445.933 192.807c-7.087.5-13.874-.847-19.887-3.617 0-.001 0 .001 0 .001-.42 23.602-4.716 45.714-11.751 66.107 9.721.553 18.149-1.678 25.219-5.703 5.079-17.975 8.249-37.03 8.965-57.052-.841.112-1.688.204-2.546.264z" fill="#cecece"/><path d="m448.582 178.481c-1.264-57.237-17.917-105.738-47.293-141.128-8.222 2.89-15.159 8.309-19.918 15.266 27.743 31.507 43.506 75.607 44.663 127.999.064 2.879.063 5.735.012 8.572 6.014 2.771 12.8 4.118 19.887 3.617.858-.061 1.705-.156 2.546-.268.166-4.636.208-9.32.103-14.058z" fill="#fc2b3a"/><path d="m66.068 192.807c7.087.5 13.874-.847 19.887-3.617 0-.001 0 .001 0 .001.419 23.602 4.716 45.714 11.751 66.107-9.722.553-18.149-1.678-25.219-5.703-5.079-17.975-8.249-37.03-8.965-57.052.84.112 1.688.204 2.546.264z" fill="#cecece"/><path d="m31.608 137.819c-1.593 3.833-2.614 7.973-2.928 12.332-1.588 21.989 15.151 41.087 37.388 42.656 7.087.501 13.874-.847 19.887-3.617-.05-2.837-.051-5.693.012-8.572 1.157-52.393 16.92-96.492 44.663-127.999-6.702-9.797-17.711-16.571-30.567-17.479-19.039-1.344-35.924 10.603-41.385 27.866-4.375-2.035-9.19-3.332-14.301-3.693-22.237-1.569-41.55 14.983-43.137 36.972-1.416 19.604 11.741 36.898 30.368 41.534z" fill="#ff4755"/><path d="m63.418 178.481c1.264-57.237 17.917-105.738 47.293-141.128 8.222 2.89 15.159 8.309 19.918 15.266-27.743 31.507-43.506 75.607-44.663 127.999-.063 2.879-.062 5.735-.012 8.572-6.014 2.771-12.8 4.118-19.887 3.617-.858-.061-1.705-.156-2.546-.268-.165-4.636-.207-9.32-.103-14.058z" fill="#fc2b3a"/><path d="m426.033 180.618c-.092-4.157-.286-8.255-.561-12.306-3.667 72.475-43.744 130.331-85.911 166.613 0 0-35.235 30.668-84.185 30.668-48.951 0-83.608-30.668-83.608-30.668-41.087-35.353-80.188-91.188-85.558-161.071-.105 2.241-.193 4.492-.243 6.764-1.762 79.765 40.992 143.334 86.137 182.178 0 0 34.657 30.668 83.608 30.668s84.186-30.668 84.186-30.668c45.143-38.844 87.898-102.414 86.135-182.178z" fill="#dbdbdb"/><path d="m137.826 166.29 30.079 38.078c5.015 6.349 14.727 6.349 19.742 0l30.08-38.078c3.539-4.481 3.539-10.769 0-15.25l-30.08-38.078c-5.015-6.349-14.727-6.349-19.742 0l-30.079 38.078c-3.54 4.48-3.54 10.769 0 15.25z" fill="#838383"/><path d="m374.175 166.29-30.079 38.078c-5.015 6.349-14.727 6.349-19.742 0l-30.079-38.078c-3.539-4.481-3.539-10.769 0-15.25l30.079-38.078c5.015-6.349 14.727-6.349 19.742 0l30.079 38.078c3.539 4.48 3.539 10.769 0 15.25z" fill="#838383"/><path d="m431.527 415.809c-.101 2.88-1.157 5.746-3.272 8.08-7.865 8.677-23.226 18.194-51.409 13.111 0 0-1.909 21.49-24.672 32.361-22.814 10.895-48.447-2.658-48.447-2.658s-13.323 22.711-47.864 22.711h-.302c-34.541 0-47.864-22.711-47.864-22.711s-25.633 13.553-48.447 2.658c-22.764-10.871-24.673-32.361-24.673-32.361-28.183 5.083-43.544-4.434-51.409-13.111-2.011-2.219-3.068-4.918-3.256-7.654-34.189 26.028-63.375 56.766-79.357 88.319-1.733 3.42.804 7.446 4.673 7.446h501.544c3.87 0 6.405-4.027 4.673-7.448-16.07-31.724-45.488-62.625-79.918-88.743z" fill="#22a7ff"/><path d="m112.871 455.58s2.25 21.49 29.082 32.361c26.893 10.895 57.108-2.658 57.108-2.658s15.705 22.711 56.421 22.711h.356c40.716 0 56.421-22.711 56.421-22.711s30.215 13.553 57.108 2.658c26.832-10.87 29.082-32.361 29.082-32.361 29.939 4.581 47.599-10.238 57.583-19.563-7.779-6.988-15.986-13.746-24.505-20.208-.101 2.88-1.157 5.746-3.272 8.08-7.865 8.677-23.226 18.194-51.409 13.111 0 0-1.909 21.49-24.672 32.361-22.814 10.895-48.447-2.658-48.447-2.658s-13.323 22.711-47.864 22.711h-.302c-34.541 0-47.864-22.711-47.864-22.711s-25.633 13.553-48.447 2.658c-22.764-10.871-24.673-32.361-24.673-32.361-28.183 5.083-43.544-4.434-51.409-13.111-2.011-2.219-3.068-4.918-3.256-7.654-8.445 6.429-16.579 13.148-24.29 20.093 10.042 9.339 27.638 23.783 57.249 19.252z" fill="#0094fd"/><path d="m255.862 489.412c34.541 0 47.864-22.711 47.864-22.711s25.633 13.553 48.447 2.658c22.763-10.87 24.672-32.361 24.672-32.361 28.183 5.083 43.544-4.434 51.409-13.111 5.176-5.71 4.109-14.599-2.156-19.11-34.898-25.124-86.202-41.983-86.202-41.983s-35.235 30.668-84.186 30.668-83.608-30.668-83.608-30.668-51.882 16.859-86.779 41.983c-6.266 4.511-7.332 13.4-2.156 19.11 7.865 8.677 23.226 18.194 51.409 13.111 0 0 1.909 21.49 24.672 32.361 22.814 10.895 48.447-2.658 48.447-2.658s13.323 22.711 47.864 22.711" fill="#ffe55a"/><path d="m372.185 419.143c-2.557-.321-4.966 1.29-5.635 3.751-1.873 6.888-7.483 20.107-23.773 27.886-16.271 7.77-29.196 3.105-35.271-.211-2.169-1.184-4.887-.689-6.475 1.19-5.421 6.417-19.382 19.072-45.167 19.072h-.302c-25.785 0-39.746-12.656-45.167-19.072-1.588-1.88-4.306-2.374-6.475-1.19-6.075 3.315-19 7.981-35.271.211-16.29-7.779-21.9-20.997-23.773-27.886-.669-2.461-3.079-4.072-5.635-3.751-25.425 3.192-47.334-5.137-55.379-13.118-4.922 4.758-5.428 12.638-.691 17.864 7.865 8.677 23.226 18.194 51.409 13.111 0 0 1.909 21.49 24.672 32.361 22.814 10.895 48.447-2.658 48.447-2.658s13.323 22.711 47.864 22.711h.302c34.541 0 47.864-22.711 47.864-22.711s25.633 13.553 48.447 2.658c22.761-10.871 24.67-32.361 24.67-32.361 28.183 5.083 43.544-4.434 51.409-13.111 4.737-5.226 4.231-13.107-.691-17.864-8.046 7.98-29.955 16.309-55.379 13.118z" fill="#ffd500"/><path d="m354.341 266.88c0-15.561-12.756-28.175-28.492-28.175-9.6 0-18.084 4.7-23.246 11.895 0 0-.002-.002-.002-.002-.55.724-13.87 17.746-46.454 17.746-32.583 0-45.902-17.022-46.452-17.746 0 0-.002.002-.002.002-5.162-7.195-13.647-11.895-23.247-11.895-15.735 0-28.492 12.614-28.492 28.175 0 5.912 1.845 11.396 4.992 15.927 3.535 5.117 31.114 41.886 93.201 41.886 62.281 0 89.84-37 93.237-41.935 3.126-4.521 4.957-9.987 4.957-15.878z" fill="#ff4755"/><path d="m349.385 264.178c-3.396 4.935-30.955 41.935-93.237 41.935-62.088 0-89.667-36.769-93.201-41.886-1.417-2.04-2.552-4.281-3.391-6.659-1.033 2.916-1.6 6.048-1.6 9.312 0 5.912 1.845 11.396 4.992 15.927 3.535 5.117 31.114 41.886 93.201 41.886 62.281 0 89.84-37 93.237-41.935 3.126-4.522 4.957-9.988 4.957-15.879 0-3.264-.568-6.396-1.6-9.311-.834 2.359-1.958 4.584-3.358 6.61z" fill="#fc2b3a"/><ellipse cx="256" cy="210.497" fill="#ff4755" rx="33.378" ry="33.007"/><path d="m256 224.924c-15.171 0-27.97-10.012-32.029-23.717-.873 2.948-1.35 6.063-1.35 9.29 0 18.229 14.944 33.007 33.379 33.007s33.378-14.778 33.378-33.007c0-3.227-.477-6.342-1.35-9.29-4.058 13.704-16.857 23.717-32.028 23.717z" fill="#fc2b3a"/><path d="m177.776 141.088c-7.993 0-14.02 7.556-14.02 17.577s6.027 17.577 14.02 17.577 14.02-7.557 14.02-17.577c0-10.021-6.027-17.577-14.02-17.577z" fill="#444"/><path d="m313.674 268.698c-8.161 7.499-26.487 20.079-57.526 20.079s-49.365-12.58-57.526-20.079c-3.167-2.91-8.123-2.733-11.068.4-2.945 3.132-2.764 8.03.405 10.942 9.845 9.046 31.795 24.221 68.19 24.221 36.394 0 58.344-15.175 68.189-24.221 3.168-2.911 3.349-7.81.405-10.942-2.945-3.132-7.901-3.311-11.069-.4z" fill="#c61926"/><path d="m334.224 141.088c-7.993 0-14.02 7.556-14.02 17.577s6.027 17.577 14.02 17.577 14.02-7.557 14.02-17.577c0-10.021-6.027-17.577-14.02-17.577z" fill="#444"/></svg>