<svg id="Capa_1" enable-background="new 0 0 511 511" height="512" viewBox="0 0 511 511" width="512" xmlns="http://www.w3.org/2000/svg"><path d="m276.885 109.705c5.79-17.095 14.224-31.89 22.086-43.299 8.713-12.644 2.212-30.11-12.619-34.091-8.342-2.239-17.209.556-22.803 7.137-16.034 18.863-23.588 49.478-27.014 69.939" fill="#82d361"/><path d="m327.021 125.686c-19.3-9.818-43.375-17.477-71.521-17.477s-52.222 7.659-71.521 17.477-176.479-.829-176.479 168.135 176.479 168.135 176.479 168.135c19.3 9.818 43.374 17.477 71.521 17.477s52.222-7.659 71.521-17.477 176.479.829 176.479-168.135c0-168.963-176.479-168.135-176.479-168.135z" fill="#ff9838"/><path d="m276.885 109.705c2.709-7.998 6-15.485 9.538-22.364-9.668-1.991-19.983-3.159-30.923-3.159-4.64 0-9.158.226-13.573.618-2.443 8.821-4.178 17.344-5.391 24.591 6.097-.759 12.417-1.182 18.964-1.182 7.416 0 14.548.534 21.385 1.496z" fill="#6acb44"/><path d="m371.495 429.963c-19.3 9.818-87.849 17.477-115.995 17.477s-96.695-7.659-115.995-17.477c0 0-125.121 9.785-131.75-147.001-.165 3.541-.255 7.157-.255 10.859 0 168.964 176.479 168.135 176.479 168.135 19.3 9.818 43.374 17.477 71.521 17.477s52.222-7.659 71.521-17.477 176.479.829 176.479-168.135c0-3.702-.09-7.318-.255-10.859-6.63 156.786-131.75 147.001-131.75 147.001z" fill="#ff8709"/><path d="m187.986 290.809-83.246 5.927s1.557-50.941 43.337-51.443c37.459-.45 39.909 45.516 39.909 45.516z" fill="#87523e"/><path d="m323.014 290.809 83.246 5.927s-1.557-50.941-43.337-51.443c-37.459-.45-39.909 45.516-39.909 45.516z" fill="#87523e"/><path d="m108.046 278.501c-3.051 9.933-3.306 18.235-3.306 18.235l83.246-5.927s-.441-8.253-3.797-17.729z" fill="#7c4b37"/><path d="m326.811 273.08c-3.356 9.477-3.797 17.729-3.797 17.729l83.246 5.927s-.255-8.302-3.306-18.235z" fill="#7c4b37"/><path d="m311.938 316.075h-56.438-56.438s-4.217 52.895 56.438 52.895v-16.506c0-7.532 6.106-13.638 13.638-13.638h5.16c7.532 0 13.638 6.106 13.638 13.638v9.37c26.493-14.438 24.002-45.759 24.002-45.759z" fill="#87523e"/><path d="m309.713 316.075c-2.76 9.522-8.773 20.672-21.777 27.758v-9.37c0-7.532-6.106-13.638-13.638-13.638h-5.16c-7.532 0-13.638 6.106-13.638 13.638v16.506c-36.888 0-49.782-19.563-54.223-34.895h-2.215s-4.218 52.895 56.438 52.895v-16.506c0-7.532 6.106-13.638 13.638-13.638h5.16c7.533 0 13.638 6.106 13.638 13.638v9.37c26.493-14.437 24.002-45.758 24.002-45.758z" fill="#7c4b37"/><path d="m71.22 168.025c1.477 0 2.969-.435 4.273-1.342 25.997-18.067 55.536-26.389 77.216-30.222-18.03 13.598-27.862 25.953-28.317 26.53-2.563 3.253-2.004 7.969 1.25 10.532 3.256 2.563 7.969 2.005 10.533-1.25.445-.565 45.416-56.563 119.324-56.563 30.793 0 60.173 9.451 87.322 28.09 20.371 13.985 31.788 28.204 32.006 28.478 1.48 1.875 3.676 2.854 5.893 2.854 1.625 0 3.262-.526 4.637-1.609 3.254-2.563 3.814-7.279 1.25-10.532-.455-.577-10.299-12.948-28.353-26.557 13.354 2.349 29.673 6.394 46.288 13.383 51.793 21.785 81.921 60.58 89.547 115.308.523 3.751 3.736 6.466 7.419 6.466.345 0 .694-.024 1.045-.073 4.103-.572 6.965-4.361 6.394-8.463-8.314-59.659-42.567-103.666-99.058-127.261-37.652-15.728-72.864-17.406-81.121-17.584-11.907-5.885-25.901-11.149-41.687-14.332 4.559-11.236 10.597-22.376 18.066-33.214 5.539-8.037 6.779-17.909 3.403-27.085-3.341-9.08-10.912-15.998-20.253-18.505-11.063-2.969-23.021.768-30.462 9.522-15.555 18.3-23.609 46.196-27.736 68.16-18.335 2.958-34.43 8.812-47.87 15.455-10.905.238-67.601 3.009-115.297 36.156-3.401 2.364-4.242 7.038-1.879 10.439 1.459 2.095 3.793 3.219 6.167 3.219zm174.521-67.016c3.644-17.465 10.694-41.607 23.524-56.7 3.706-4.361 9.647-6.226 15.144-4.75 4.71 1.264 8.378 4.617 10.063 9.198 1.671 4.541 1.061 9.423-1.677 13.394-8.814 12.791-15.843 26.015-20.941 39.391l.018.019c-5.294-.547-10.751-.851-16.373-.851-3.313 0-6.564.114-9.765.311z"/><path d="m511 293.821c0-4.142-3.357-7.5-7.5-7.5s-7.5 3.358-7.5 7.5c0 46.455-13.869 83.837-41.224 111.108-29.495 29.406-69.08 41.351-96.325 46.205 17.636-13.334 27.389-25.508 28.156-26.481 2.564-3.253 2.004-7.969-1.25-10.533-3.255-2.561-7.968-2.004-10.533 1.251-.333.423-34.025 42.485-90.936 53.778-4.063.806-6.703 4.753-5.896 8.816.708 3.57 3.842 6.042 7.349 6.042.483 0 .975-.047 1.468-.145 15.768-3.129 29.849-8.348 42.116-14.426 13.106-.279 86.416-4.09 136.356-53.796 30.336-30.197 45.719-71.182 45.719-121.819z"/><path d="m255.5 471.933c-30.793 0-60.173-9.451-87.322-28.09-20.467-14.051-31.896-28.339-32.002-28.473-2.564-3.254-7.281-3.813-10.533-1.251-3.254 2.564-3.813 7.279-1.25 10.533.454.577 10.274 12.915 28.282 26.504-27.249-4.84-66.91-16.776-96.451-46.227-27.355-27.27-41.224-64.653-41.224-111.108 0-45.076 13.067-81.638 38.839-108.669 2.857-2.998 2.744-7.746-.254-10.604-2.998-2.859-7.746-2.746-10.604.253-28.52 29.916-42.981 69.96-42.981 119.02 0 50.637 15.383 91.622 45.721 121.818 50.161 49.926 123.892 53.55 136.52 53.8 19.338 9.555 44.159 17.494 73.259 17.494 4.143 0 7.5-3.358 7.5-7.5s-3.357-7.5-7.5-7.5z"/><path d="m147.987 237.794c-20.247.244-35.502 10.755-44.115 30.397-6.125 13.968-6.611 27.736-6.629 28.316-.066 2.12.771 4.169 2.302 5.639 1.401 1.346 3.265 2.09 5.194 2.09.177 0 .354-.006.532-.019l83.247-5.927c4.08-.29 7.175-3.796 6.957-7.88-.028-.528-.757-13.078-6.591-25.679-8.262-17.844-22.448-27.146-40.897-26.937zm-34.759 50.819c2.312-12.754 9.939-35.519 34.94-35.82.143-.002.282-.002.425-.002 21.569 0 28.621 19.93 30.878 31.106z"/><path d="m363.013 237.794c-18.529-.225-32.635 9.093-40.897 26.937-5.834 12.601-6.563 25.151-6.591 25.679-.218 4.085 2.877 7.59 6.957 7.88l83.247 5.927c.178.013.356.019.532.019 1.93 0 3.793-.745 5.194-2.09 1.53-1.47 2.367-3.518 2.302-5.639-.018-.58-.504-14.348-6.629-28.316-8.613-19.642-23.868-30.153-44.115-30.397zm-31.484 46.103c2.257-11.177 9.306-31.106 30.879-31.106.141 0 .283.001.425.002 25.004.301 32.63 23.073 34.94 35.82z"/><path d="m280.436 352.463v9.37c0 2.647 1.395 5.097 3.67 6.449 2.276 1.352 5.095 1.403 7.419.137 30.417-16.576 28.007-51.462 27.89-52.939-.311-3.899-3.565-6.905-7.477-6.905h-112.877c-3.911 0-7.165 3.005-7.476 6.904-.08 1.008-1.779 24.894 14.645 42.679 11.221 12.151 27.798 18.311 49.27 18.311 4.143 0 7.5-3.358 7.5-7.5v-16.506c0-3.385 2.754-6.139 6.139-6.139h5.159c3.385.001 6.138 2.755 6.138 6.139zm-11.297-21.138c-11.656 0-21.139 9.483-21.139 21.139v8.692c-13.355-1.161-23.645-5.542-30.653-13.07-7.382-7.929-9.775-17.947-10.521-24.511h97.399c-.679 6.225-2.862 15.537-9.528 23.334-2.445-8.97-10.664-15.584-20.398-15.584z"/></svg>