<svg id="Capa_1" enable-background="new 0 0 512 512" height="512" viewBox="0 0 512 512" width="512" xmlns="http://www.w3.org/2000/svg"><path d="m256.001 473.454c-53.125 0-104.706-15.047-149.167-43.514-43.877-28.093-80.255-68.865-105.203-117.908-2.365-4.65-2.145-10.195.582-14.643 2.727-4.447 7.57-7.158 12.787-7.158h482c5.217 0 10.06 2.711 12.787 7.158 2.727 4.448 2.948 9.993.582 14.643-24.947 49.042-61.326 89.814-105.204 117.907-44.458 28.468-96.04 43.515-149.164 43.515z" fill="#452123"/><path d="m509.788 297.39c-2.728-4.447-7.57-7.158-12.787-7.158h-241v183.222c53.125 0 104.705-15.047 149.166-43.514 43.878-28.093 80.256-68.865 105.204-117.907 2.365-4.651 2.144-10.196-.583-14.643z" fill="#2b1315"/><path d="m255.664 512.191c-17.908 0-34.877-7.738-46.557-21.231l-.003-.004v.001c-.167-.193-9.916-11.465-14.669-16.978-1.612-1.87-3.344-3.672-5.148-5.356l-10.799-10.088c-10.606-9.908-19.03-21.379-25.039-34.096-8.823-18.675-13.436-38.603-13.711-59.232l-1.325-54.998c-.032-1.331.48-2.642 1.406-3.598.926-.957 2.221-1.511 3.552-1.522 0 0 225.183-1.857 225.183-1.857 1.369 0 2.694.563 3.615 1.505.945.967 1.464 2.297 1.422 3.649l-1.762 56.936c-.3 20.693-4.964 40.673-13.862 59.385-6.096 12.817-14.66 24.361-25.455 34.312l-10.318 9.509c-1.928 1.777-3.772 3.683-5.482 5.665-4.852 5.624-14.489 16.766-14.489 16.767-11.682 13.491-28.653 21.231-46.559 21.231z" fill="#d2d02c"/><path d="m372.167 304.736c-.921-.942-2.247-1.505-3.615-1.505 0 0-56.269.464-112.551.928v208.022c17.782-.097 34.614-7.816 46.22-21.223 0-.001 9.637-11.143 14.489-16.767 1.711-1.982 3.555-3.888 5.482-5.665l10.318-9.509c10.795-9.95 19.359-21.494 25.455-34.312 8.898-18.712 13.562-38.692 13.862-59.385l1.762-56.936c.042-1.35-.476-2.68-1.422-3.648z" fill="#b5b424"/><path d="m270.614 450.314h-15.226c-8.284 0-15-6.716-15-15v-63.567c0-8.284 6.716-15 15-15s15 6.716 15 15v48.567h.226c8.284 0 15 6.716 15 15s-6.716 15-15 15z" fill="#b5b424"/><path d="m270.614 420.314h-.226v-48.567c0-8.077-6.389-14.645-14.387-14.969v93.536h14.613c8.284 0 15-6.716 15-15s-6.716-15-15-15z" fill="#7c7b16"/><path d="m386.732 318.217h-261.462c-5.125 0-9.896-2.617-12.65-6.94s-3.11-9.753-.945-14.398c8.368-17.949 19.787-35.054 30.829-51.597 4.602-6.894 8.949-13.405 12.976-19.824.034-.054.067-.106.102-.16 13.87-21.499 23.475-40.779 30.226-60.674.014-.04.028-.081.042-.122 4.151-11.896 7.361-24.42 10.759-37.68 8.476-33.073 18.083-70.559 46.422-119.354 3.309-5.697 9.948-8.567 16.364-7.078 6.417 1.49 11.111 6.994 11.57 13.565 3.847 55.031 21.602 80.539 44.08 112.833 3.035 4.359 6.172 8.867 9.358 13.564 16.365 24.137 29.85 48.109 41.228 73.287 7.325 15.776 14.082 32.696 20.616 49.059 4.949 12.393 9.623 24.099 14.203 34.452 2.052 4.639 1.62 10.001-1.148 14.252s-7.497 6.815-12.57 6.815z" fill="#b45d4a"/><path d="m400.45 297.149c-4.579-10.353-9.253-22.059-14.203-34.452-6.534-16.363-13.291-33.283-20.616-49.059-11.378-25.178-24.863-49.149-41.228-73.287-3.186-4.697-6.324-9.205-9.358-13.564-22.478-32.294-40.234-57.802-44.08-112.833-.46-6.572-5.153-12.075-11.57-13.566-1.131-.263-2.268-.382-3.393-.382v318.21h130.731c5.073 0 9.802-2.564 12.57-6.815 2.767-4.25 3.199-9.612 1.147-14.252z" fill="#94443f"/><path d="m241.9 384.334c-33.694 0-66.77-3.456-98.851-10.349-86.186-18.521-135.102-55.269-137.142-56.824-5.118-3.901-7.177-10.632-5.118-16.729s7.777-10.201 14.211-10.201h482c6.973 0 13.027 4.806 14.609 11.597 1.582 6.792-1.725 13.777-7.98 16.859-68.335 33.662-136.889 54.621-203.756 62.294-19.476 2.236-38.825 3.353-57.973 3.353z" fill="#94443f"/><path d="m511.61 301.829c-1.582-6.792-7.636-11.597-14.609-11.597h-241v93.899c14.53-.413 29.165-1.461 43.872-3.149 66.868-7.674 135.421-28.633 203.756-62.294 6.256-3.082 9.563-10.068 7.981-16.859z" fill="#452123"/></svg>