<svg id="Capa_1" enable-background="new 0 0 512.024 512.024" height="512" viewBox="0 0 512.024 512.024" width="512" xmlns="http://www.w3.org/2000/svg"><g><g><g><g><ellipse cx="60.513" cy="233.74" fill="#ffbead" rx="48.349" ry="48.349" transform="matrix(.099 -.995 .995 .099 -178.052 270.927)"/><ellipse cx="432.709" cy="233.74" fill="#ffddcf" rx="48.349" ry="48.349" transform="matrix(.099 -.995 .995 .099 157.469 641.311)"/></g></g><path d="m415.172 438.798c-14.455-79.9-86.458-139.755-167.538-139.755-81.083 0-153.079 59.833-167.538 139.755-2.456 13.575 8.151 26.016 21.945 26.016h291.185c13.796 0 24.402-12.442 21.946-26.016z" fill="#76e7d6"/><path d="m415.172 438.798c-14.455-79.9-86.458-139.755-167.538-139.755-67.975 0-129.554 42.055-156.21 102.74 25.295 4.874 75.735 39.881 98.463 63.031h203.34c13.795 0 24.401-12.442 21.945-26.016z" fill="#50e2ce"/><g><path d="m60.427 157.866c0-19.966 4.014-39.176 11.26-56.808 110.364-83.095 277.244-62.929 311.686-54.413 30.143 27.766 49.172 67.707 49.172 111.221v76.006c0 81.431-66.626 148.056-148.056 148.056h-76.006c-81.431 0-148.056-65.625-148.056-147.056v-77.006z" fill="#e7faff"/><g><path d="m179.418 335.787c-10.516-36.508-18.054-74.886-20.542-112.813-2.638-40.213 4.022-80.267 15.374-118.77 5.556-18.846 11.972-37.619 19.33-56.001-42.249 9.021-85.195 25.224-121.894 52.855-7.247 17.631-11.26 36.842-11.26 56.808v77.006c0 77.179 58.493 141.355 135.433 146.527-6.764-14.778-12.033-30.312-16.441-45.612z" fill="#c1f1ff"/></g><path d="m179.358 96.018c25.747-24.18 42.354-37.303 78.046-24.232 33.043 12.101 59.651 21.545 92.274 1.718 12.296-7.473 23.09-17.114 33.695-26.859-26.265-24.194-60.967-39.145-98.884-39.145h-76.006c-61.465 0-114.487 39.279-136.796 93.558 10.607 8.188 23.124 13.909 36.326 16.235 25.34 4.465 52.589-3.66 71.345-21.275z" fill="#fd5c6f"/><path d="m211.857 7.5h-3.374c-61.465 0-114.487 39.279-136.796 93.558 10.607 8.188 23.124 13.909 36.326 16.235 23.761 4.187 49.2-2.697 67.742-18.094 9.499-31.338 21.382-62.399 36.102-91.699z" fill="#f9475e"/></g><g><circle cx="159.66" cy="204.423" fill="#ffddcf" r="42.941"/><g><path d="m158.877 222.974c-1.35-20.586-.263-41.137 2.642-61.452-.621-.027-1.232-.04-1.859-.04-23.716 0-42.941 19.225-42.941 42.941s19.225 42.941 42.941 42.941c.502 0 .987-.008 1.485-.025-.973-8.123-1.737-16.261-2.268-24.365z" fill="#ffcbbe"/></g><circle cx="333.563" cy="204.423" fill="#ffddcf" r="42.941"/></g><g><g><g><path d="m192.149 302.172c-3.415 0-6.503-2.348-7.302-5.818l-2.603-11.296c-.93-4.037 1.589-8.062 5.625-8.992 4.036-.927 8.063 1.588 8.992 5.625l2.603 11.296c.93 4.036-1.589 8.062-5.625 8.992-.566.131-1.133.193-1.69.193z" fill="#c1f1ff"/></g><g><path d="m143.721 305.865c-.251 0-.504-.013-.76-.038-4.121-.415-7.126-4.092-6.711-8.213l1.159-11.533c.415-4.121 4.078-7.122 8.213-6.712 4.121.415 7.126 4.092 6.711 8.213l-1.159 11.533c-.389 3.866-3.648 6.75-7.453 6.75z" fill="#e7faff"/></g></g><g><g><path d="m301.074 302.172c-.558 0-1.124-.063-1.69-.193-4.036-.93-6.555-4.956-5.625-8.992l2.603-11.298c.931-4.037 4.965-6.555 8.993-5.623 4.036.93 6.555 4.957 5.624 8.993l-2.603 11.294c-.799 3.471-3.886 5.819-7.302 5.819z" fill="#c1f1ff"/></g><g><path d="m349.502 305.865c-3.805 0-7.064-2.883-7.453-6.75l-1.16-11.533c-.415-4.121 2.59-7.798 6.711-8.213 4.116-.412 7.798 2.59 8.213 6.712l1.16 11.533c.415 4.121-2.59 7.798-6.711 8.213-.255.026-.509.038-.76.038z" fill="#c1f1ff"/></g></g></g><path d="m258.102 452.906c-10.035 1.387-20.818 2.77-28.34 9.556-11.073 12.646-10.43 24.654 1.929 36.024 25.179 16.929 117.522-4.087 126.566-35.541 5.555-19.32-11.383-36.764-28.671-26.681-19.746 11.517-49.326 13.579-71.484 16.642z" fill="#525e77"/><path d="m277.831 450.372c18.043-2.394 37.472-5.777 51.755-14.108 17.288-10.083 34.226 7.361 28.671 26.681-4.852 16.876-33.683 30.747-63.254 37.365-14.412-9.765-18.845-39.574-17.172-49.938z" fill="#3b4456"/><g><path d="m498.88 375.198c1.173-8.744 1.326-17.914.296-27.509-1.356-12.637-16.493-18.394-25.926-9.875-41.561 37.536-90.034 67.647-142.091 88.291-13.205 5.237-29.55 8.583-30.516 25.42-.977 17.025 6.24 39.224 23.559 45.724 8.025 3.012 16.944 2.015 25.404.631 10.24-1.675 20.7-4.128 31.098-7.335 14.066-25.938 86.047-100.422 118.176-115.347z" fill="#90aecf"/><path d="m400.667 456.98c-18.642 5.545-41.274 9.558-58.056-2.934-8.804-6.553-14.493-15.573-17.803-25.566-11.588 4.237-23.349 8.839-24.164 23.044-.977 17.025 6.24 39.224 23.559 45.724 8.025 3.012 16.945 2.015 25.404.631 10.24-1.675 20.7-4.128 31.098-7.335 4.488-8.276 14.876-21.496 27.98-36.144-2.656.911-5.326 1.779-8.018 2.58z" fill="#7c96b3"/><path d="m498.88 375.198c-28.253 2.449-84.511 54.102-98.145 71.18-11.977 15.003-19.524 31.004-20.031 44.167 56.074-17.298 110.298-56.634 118.176-115.347z" fill="#fd5c6f"/><g><path d="m459.349 435.405c-9.248 3.791-18.667 7.084-28.022 10.59-10.165 3.81-20.246 7.887-30.661 10.985-2.933.872-5.964 1.707-9.056 2.445-6.583 10.889-10.544 21.727-10.906 31.12 37.177-11.469 73.536-32.629 96.119-62.697-5.774 2.63-11.601 5.149-17.474 7.557z" fill="#f9475e"/></g></g></g><g><g><path d="m159.659 254.864c27.813 0 50.441-22.628 50.441-50.441s-22.628-50.441-50.441-50.441-50.44 22.628-50.44 50.441 22.628 50.441 50.44 50.441zm0-85.882c19.542 0 35.441 15.899 35.441 35.441s-15.899 35.441-35.441 35.441-35.44-15.899-35.44-35.441 15.898-35.441 35.44-35.441z"/><path d="m333.563 254.864c27.813 0 50.441-22.628 50.441-50.441s-22.628-50.441-50.441-50.441-50.44 22.628-50.44 50.441 22.627 50.441 50.44 50.441zm0-85.882c19.542 0 35.441 15.899 35.441 35.441s-15.899 35.441-35.441 35.441-35.44-15.899-35.44-35.441 15.898-35.441 35.44-35.441z"/><path d="m506.633 346.889c-1.969-18.357-24.681-27.04-38.41-14.641-20.307 18.341-42.555 35.025-66.09 49.646-5.641-9.789-12.192-18.999-19.527-27.516 20.931-17.139 37.42-39.605 47.15-64.869 31.48 1.646 58.802-24.223 58.802-55.769 0-28.307-21.174-51.746-48.512-55.351v-20.523c0-43.984-18.802-86.531-51.585-116.731-.002-.002-.004-.004-.006-.006-28.794-26.523-65.715-41.129-103.965-41.129h-76.007c-31.196 0-61.412 9.606-87.382 27.78-42.036 29.418-68.174 78.681-68.174 130.086v20.554c-27.218 3.715-48.263 27.099-48.263 55.32 0 31.359 27.006 57.153 58.318 55.786 9.991 26.17 26.934 48.964 48.584 66.146-19.471 23.037-33.28 51.011-38.849 81.791-1.556 8.597.78 17.392 6.408 24.13 5.691 6.814 14.045 10.722 22.917 10.722h113.464c-3.258 11 .46 21.897 11.108 31.691 8.122 7.469 23.228 8.019 33.513 8.019 18.035 0 38.966-4.014 56.56-10.029 10.564 5.9 22.597 5.175 34.132 3.287 40.64-6.648 81.206-23.618 112.057-51.297 24.544-22.022 39.565-48.921 43.439-77.788v-.001c1.276-9.522 1.384-19.382.318-29.308zm-270.31 145.661c-8.796-8.313-9.149-15.555-1.223-24.795 6.445-5.533 15.972-6.317 24.029-7.419 11.317-1.549 22.684-2.729 33.946-4.66.212 12.142 3.62 24.699 10.76 34.632-27.156 7.77-56.603 9.003-67.512 2.242zm-145.686-40.574c-2.77-3.316-3.922-7.633-3.16-11.843 5.165-28.549 18.069-54.466 36.268-75.713 24.396 15.807 53.504 25.008 84.738 25.008h76.007c31.032 0 60.733-9.123 86.073-26.108 7.064 8.101 13.353 16.895 18.727 26.271-21.137 12.223-43.307 23.178-66.264 31.556-9.405 3.433-21.498 7.854-26.985 18.723-13.257 2.627-26.723 3.904-40.097 5.763-10.779 1.498-23.715 3.334-31.62 11.681h-122.282c-4.414 0-8.571-1.946-11.405-5.338zm-22.71-217.104c0-4.142-3.357-7.5-7.5-7.5s-7.5 3.358-7.5 7.5c0 13.699 1.812 26.984 5.195 39.641-21.415-1.243-38.458-19.052-38.458-40.773 0-19.931 14.352-36.563 33.263-40.131v10.814c0 4.142 3.357 7.5 7.5 7.5s7.5-3.358 7.5-7.5v-46.557c0-15.421 2.492-30.579 7.418-45.185 34.166 20.994 79.856 16.315 109.147-11.195 25.049-23.523 38.504-34.313 70.333-22.657 32.261 11.815 62.73 22.975 98.749 1.085 10.712-6.511 20.368-14.609 29.653-22.986 26.656 26.981 41.818 63.392 41.818 100.939v76.006c0 37.38-14.666 72.632-41.295 99.261-26.63 26.629-61.882 41.295-99.262 41.295h-76.007c-77.501-.001-140.554-62.605-140.554-139.557zm61.774-194.803c23.436-16.4 50.678-25.069 78.782-25.069h76.007c31.793 0 62.599 11.224 87.604 31.767-8.456 7.582-17.001 14.67-26.31 20.328-29.845 18.138-54.538 9.096-85.8-2.352-39.105-14.32-58.488.195-85.761 25.808-25.155 23.625-64.514 26.922-93.243 7.938 10.774-23.475 27.524-43.586 48.721-58.42zm310.345 153.495c19.033 3.468 33.512 20.157 33.512 40.176 0 21.874-17.282 39.783-38.909 40.799 3.555-13.107 5.397-26.752 5.397-40.667zm-113.207 296.663c-13.291-4.988-19.559-23.442-18.708-38.272.499-8.696 6.489-11.771 20.038-16.717 55.204-20.149 106.587-52.55 150.108-91.857 4.813-4.348 12.751-1.326 13.441 5.11.736 6.856.838 13.663.306 20.303-19.459 4.826-36.953 18.376-52.368 30.64-19.863 15.802-37.563 33.224-44.782 42.266-9.894 12.392-18.769 27.157-21.138 43.091-8.423 2.403-16.925 4.312-25.341 5.689-7.036 1.15-15.088 2.176-21.556-.253zm126.018-47.408c-16.851 15.119-38.245 27.614-62.416 36.521 2.892-8.82 8.46-18.643 16.156-28.283 6.529-8.179 23.608-24.938 42.398-39.886 15.73-12.514 29.765-21.422 40.284-25.699-5.338 21.171-17.554 40.418-36.422 57.347z"/><path d="m235.699 257.628h21.823c4.143 0 7.5-3.358 7.5-7.5s-3.357-7.5-7.5-7.5h-21.823c-4.143 0-7.5 3.358-7.5 7.5s3.358 7.5 7.5 7.5z"/></g><g><path d="m159.659 217.24c-4.143 0-7.5-3.358-7.5-7.5v-10.634c0-4.142 3.357-7.5 7.5-7.5s7.5 3.358 7.5 7.5v10.634c0 4.142-3.357 7.5-7.5 7.5z"/></g><g><path d="m333.563 217.24c-4.143 0-7.5-3.358-7.5-7.5v-10.634c0-4.142 3.357-7.5 7.5-7.5s7.5 3.358 7.5 7.5v10.634c0 4.142-3.358 7.5-7.5 7.5z"/></g></g></g></svg>