<svg id="Capa_1" enable-background="new 0 0 511.208 511.208" height="512" viewBox="0 0 511.208 511.208" width="512" xmlns="http://www.w3.org/2000/svg"><g><g><g><g id="XMLID_182_"><g><path d="m288.064 7.504c10.72 0 18.79 9.75 16.79 20.29l-6.4 33.57-6.81 35.74-8.45 44.4c-.82 4.3-4.59 7.41-8.97 7.41h-38.24c-4.38 0-8.15-3.11-8.97-7.41l-8.45-44.4-6.81-35.74-6.4-33.57c-2-10.54 6.07-20.29 16.79-20.29h65.92z" fill="#e9b665"/></g></g></g><path d="m260.523 141.504-8.45-44.4-6.81-35.74-6.4-33.57c-2-10.54 6.07-20.29 16.79-20.29h-33.51c-10.72 0-18.79 9.75-16.79 20.29l6.4 33.57 6.81 35.74 8.45 44.4c.82 4.3 4.59 7.41 8.97 7.41h33.51c-4.379 0-8.149-3.11-8.97-7.41z" fill="#d8aa5e"/><path d="m308.874 176.304v-90.2h-106.54v90.2l-76.881 82.027 5.074 92.44 235.084-1.297 36.811-73.36zm-183.21 81.81.219-.045-.412.252z" fill="#6cf5c2"/><path d="m156.459 441.964v-143.26c0-4.08 1.55-8.01 4.34-10.99l95.33-101.712c5.84-6.231 9.09-14.451 9.09-22.99v-76.908h-62.885v90.2l-104.42 111.41c-2.79 2.98-4.34 6.91-4.34 10.99v143.26c0 34.098 27.642 61.74 61.74 61.74h62.885c-34.1 0-61.74-27.64-61.74-61.74z" fill="#00f2a6"/><path d="m235.984 148.914h38.24c4.38 0 8.15-3.11 8.97-7.41l8.45-52.4h-73.08l8.45 52.4c.82 4.3 4.59 7.41 8.97 7.41z" fill="#e9b665"/><path d="m265.219 89.104h-46.655l8.45 52.4c.82 4.3 4.59 7.41 8.97 7.41h29.235z" fill="#d8aa5e"/><path d="m310.337 97.105h-110.466c-9.869 0-17.869-8-17.869-17.869 0-9.869 8-17.869 17.869-17.869h110.466c9.869 0 17.869 8 17.869 17.869 0 9.869-8 17.869-17.869 17.869z" fill="#00f2a6"/><path d="m228.589 81.564c-9.869 0-17.869-8-17.869-17.869 0-.791.069-1.564.169-2.328h-11.017c-9.869 0-17.869 8-17.869 17.869s8 17.869 17.869 17.869h110.466c9.078 0 16.557-6.775 17.701-15.542h-99.45z" fill="#05e39c"/><g id="XMLID_178_"><path d="m417.634 298.704c0-4.08-1.55-8.01-4.34-10.99l-32.964-35.171-17.282-5.134c-37.579-11.167-77.763-9.859-114.536 3.727l-18.427 6.808v132.049h162.588v-75.663c8.295-4.878 17.385-10.246 24.961-14.728z" fill="#a274bf"/><g><path d="m417.634 298.704v143.26c0 34.1-27.64 61.74-61.74 61.74h-200.58c-34.1 0-61.74-27.64-61.74-61.74v-143.26c0-4.08 1.55-8.01 4.34-10.99l27.75-29.6 21.99-4.56c33.14-6.86 67.6-3.18 98.55 10.52l26.07 11.53c41.41 18.33 88.59 18.52 130.15.51l10.87 11.6c2.79 2.98 4.34 6.91 4.34 10.99z" fill="#b289c9"/></g><path d="m156.459 441.964v-143.26c0-4.08 1.55-8.01 4.34-10.99l34.533-36.845c-15.845-1.452-31.911-.579-47.678 2.685l-21.99 4.56-27.514 29.349-.236.252c-1.395 1.49-2.48 3.218-3.216 5.083s-1.124 3.867-1.124 5.908v143.26c0 34.098 27.642 61.74 61.74 61.74h62.885c-34.1-.002-61.74-27.642-61.74-61.742z" fill="#a274bf"/></g><circle cx="173.357" cy="339.916" fill="#a274bf" r="33.823"/><path d="m156.459 310.622c-10.114 5.847-16.925 16.772-16.925 29.294s6.811 23.447 16.925 29.294z" fill="#925cb4"/><circle cx="328.206" cy="402.142" fill="#814ba2" r="33.823"/><circle cx="273.972" cy="329.317" fill="#a274bf" r="18.029"/><circle cx="203.353" cy="428.201" fill="#925cb4" r="18.029"/></g><g><path d="m418.764 282.59-102.39-109.251v-69.466c11.083-2.716 19.332-12.729 19.332-24.637 0-13.989-11.381-25.37-25.369-25.37h-2.818l4.7-24.67c1.376-7.224-.524-14.616-5.212-20.282-4.688-5.665-11.595-8.914-18.948-8.914h-65.91c-7.354 0-14.26 3.249-18.948 8.914-4.688 5.666-6.588 13.058-5.212 20.283l4.7 24.669h-2.818c-13.988 0-25.369 11.381-25.369 25.37 0 12.264 8.749 22.522 20.332 24.865v69.238l-102.389 109.25c-4.109 4.384-6.372 10.107-6.372 16.115v87.456c0 4.142 3.357 7.5 7.5 7.5s7.5-3.358 7.5-7.5v-87.456c0-2.184.822-4.264 2.316-5.857l26.122-27.872 19.663-4.073c26.344-5.456 53.17-4.005 78.484 4.125.122.042.243.082.366.118 5.116 1.657 10.172 3.581 15.147 5.784l26.065 11.537c14.306 6.333 29.438 10.655 44.976 12.847.355.05.708.075 1.058.075 3.677 0 6.888-2.707 7.417-6.453.578-4.102-2.277-7.896-6.379-8.474-14.166-1.999-27.961-5.939-40.999-11.711l-24.031-10.637c34.975-12.881 73.903-14.133 109.634-3.514l15.332 4.556 13.143 14.023c-13.7 4.835-27.981 7.707-42.593 8.545-4.136.237-7.295 3.782-7.058 7.917.229 3.989 3.535 7.07 7.48 7.07.145 0 .29-.004.437-.012 18.215-1.045 35.961-4.974 52.839-11.671l7.329 7.82c1.493 1.593 2.315 3.673 2.315 5.857v143.263c0 29.908-24.332 54.24-54.239 54.24h-200.585c-29.907 0-54.239-24.332-54.239-54.24v-23.845c0-4.142-3.357-7.5-7.5-7.5s-7.5 3.358-7.5 7.5v23.845c0 38.179 31.061 69.24 69.239 69.24h200.584c38.179 0 69.239-31.061 69.239-69.24v-143.262c0-6.009-2.263-11.732-6.371-16.115zm-229.263-203.354c0-5.718 4.651-10.37 10.369-10.37h11.771.005 40.127c4.143 0 7.5-3.358 7.5-7.5s-3.357-7.5-7.5-7.5h-33.816l-5.235-27.476c-.536-2.818.205-5.703 2.034-7.913s4.524-3.477 7.393-3.477h65.91c2.869 0 5.563 1.268 7.392 3.478s2.57 5.094 2.034 7.912l-5.235 27.477h-8.514c-4.143 0-7.5 3.358-7.5 7.5s3.357 7.5 7.5 7.5h14.697c.01 0 .021.001.031.001.011 0 .022-.001.033-.001h11.84c5.718 0 10.369 4.652 10.369 10.37s-4.651 10.369-10.369 10.369h-18.8c-.001 0-.002 0-.003 0h-72.855c-.01 0-.019 0-.029 0h-18.78c-5.717-.001-10.369-4.652-10.369-10.37zm93.082 25.369-6.761 35.493c-.146.765-.817 1.32-1.597 1.32h-38.244c-.779 0-1.45-.555-1.597-1.321l-6.761-35.493h54.96zm-36.672 139.497-15.998 5.911c-26.707-8.159-54.882-9.571-82.602-4.031l60.495-64.549c1.303-1.39 2.027-3.224 2.027-5.129v-71.699h2.522l7.296 38.299c1.49 7.831 8.358 13.515 16.331 13.515h38.244c7.973 0 14.841-5.684 16.331-13.514l7.296-38.299h3.522v71.699c0 1.905.725 3.739 2.027 5.129l52.841 56.382c-36.361-8.854-75.188-6.698-110.332 6.286z"/><path d="m173.358 298.593c-22.786 0-41.323 18.537-41.323 41.323s18.537 41.323 41.323 41.323c22.785 0 41.322-18.537 41.322-41.323s-18.537-41.323-41.322-41.323zm0 67.646c-14.515 0-26.323-11.808-26.323-26.323s11.809-26.323 26.323-26.323 26.322 11.808 26.322 26.323-11.809 26.323-26.322 26.323z"/><path d="m328.206 443.464c22.786 0 41.323-18.537 41.323-41.323s-18.537-41.323-41.323-41.323c-22.785 0-41.322 18.537-41.322 41.323s18.537 41.323 41.322 41.323zm0-67.645c14.515 0 26.323 11.808 26.323 26.323s-11.809 26.323-26.323 26.323-26.322-11.808-26.322-26.323 11.809-26.323 26.322-26.323z"/><path d="m273.972 303.788c-14.077 0-25.529 11.452-25.529 25.529s11.452 25.529 25.529 25.529 25.529-11.452 25.529-25.529-11.452-25.529-25.529-25.529zm0 36.058c-5.806 0-10.529-4.724-10.529-10.529s4.724-10.529 10.529-10.529 10.529 4.724 10.529 10.529-4.723 10.529-10.529 10.529z"/><path d="m177.823 428.201c0 14.077 11.452 25.529 25.529 25.529s25.529-11.452 25.529-25.529-11.452-25.529-25.529-25.529-25.529 11.452-25.529 25.529zm25.53-10.529c5.806 0 10.529 4.724 10.529 10.529s-4.724 10.529-10.529 10.529-10.529-4.724-10.529-10.529 4.723-10.529 10.529-10.529z"/></g></g></svg>