<svg id="Capa_1" enable-background="new 0 0 494.336 494.336" height="512" viewBox="0 0 494.336 494.336" width="512" xmlns="http://www.w3.org/2000/svg"><g><path d="m478.324 342.194c-30.32 21.99-67.72 34.82-108.13 34.42-45.32-.44-86.48-17.29-117.93-44.89-.64-.56-1.53-.74-2.34-.47l-24.15 8.15c-1.34.45-2.26 1.68-2.32 3.1l-1.042 25.372c-.139 3.375-2.631 6.188-5.965 6.732l-41.363 6.746c-2.84.46-4.5-3.1-2.32-4.98l19.15-16.46v-33.42c0-1.41.87-2.68 2.18-3.19l33.53-12.94c1.51-.59 2.01-2.45 1.02-3.73-22.28-28.71-36.1-64.34-37.8-103.21l-.942-20.541h-152.462l-4.246 20.541c-16.32 77.41 5.22 161.74 64.57 220.88 93.83 93.48 245.68 93.38 339.38-.32 22.06-22.06 38.93-47.34 50.61-74.33 2.52-5.82-4.3-11.18-9.43-7.46z" fill="#fed402"/><g><path d="m150.083 413.824c-59.35-59.14-80.89-143.47-64.57-220.88l2.08-10.061h-50.153l-4.246 20.541c-16.32 77.41 5.22 161.74 64.57 220.88 65.768 65.522 160.038 85.061 242.811 58.626-68.119 5.931-138.286-17.094-190.492-69.106z" fill="#fac600"/></g><g id="XMLID_181_"><g><path d="m339.544 69.23-3.756-16.38c-6.95-30.28-33.52-52.14-64.58-52.79-1.8-.04-3.59-.06-5.39-.06-68.16 0-132.2 26.57-180.33 74.82-17.89 17.94-32.78 38.22-44.44 60.52l25.266 13.401h109.368l39.325-13.401c5.73-14.72 13.61-28.64 23.52-41.45 13.862-17.914 31.333-32.834 50.978-43.808.718-.401 1.585-.443 2.342-.12l1.449.618 43.591 20.778c1.429.68 3.011-.587 2.657-2.128z" fill="#7a6d79"/><g><path d="m126.64 90.53c48.13-48.25 112.17-74.82 180.33-74.82 1.8 0 3.59.02 5.39.06.239.005.475.023.713.03-11.477-9.599-26.089-15.41-41.866-15.74-1.8-.04-3.59-.06-5.39-.06-68.16 0-132.2 26.57-180.33 74.82-17.89 17.94-32.78 38.22-44.44 60.52l25.266 13.401h17.121c11.472-21.39 25.937-40.894 43.206-58.211z" fill="#685e68"/></g><path d="m41.281 134.903c-3.99 7.64-7.61 15.51-10.84 23.61-1.16 2.9-2.24 5.82-3.28 8.74l13.183 19.163h154.752l11.215-19.163c1.87-11.1 4.797-21.931 8.867-32.351z" fill="#a274bf"/><path d="m34.027 150.024c-1.238 2.805-2.445 5.627-3.586 8.489-1.16 2.9-2.24 5.82-3.28 8.74l13.183 19.163h154.752l11.215-19.163c.981-5.825 2.262-11.573 3.838-17.23z" fill="#925cb4"/></g></g><path d="m200.592 203.424h-168.868c-14.184 0-25.683-11.499-25.683-25.683v-6.95c0-2.034 1.649-3.682 3.682-3.682h212.87c2.034 0 3.682 1.649 3.682 3.682v6.95c0 14.184-11.498 25.683-25.683 25.683z" fill="#685e68"/><path d="m66.731 188.622c-12.764 0-23.349-9.313-25.341-21.514h-31.666c-2.034 0-3.682 1.649-3.682 3.682v6.95c0 14.184 11.499 25.683 25.683 25.683h168.868c10.294 0 19.168-6.058 23.265-14.801z" fill="#554e56"/><path d="m95.686 281.26 46.512-13.771c1.827-.541 2.02-3.052.297-3.866l-47.824-22.584c-1.197-.565-2.613.121-2.913 1.411-2.984 12.817-2.89 25.349 1.373 37.498.368 1.047 1.49 1.628 2.555 1.312z" fill="#685e68"/><path d="m142.495 263.624-6.765-3.195-13.674 4.048c-11.023 3.264-22.157-4.921-22.239-16.416-.011-1.507.03-3.019.12-4.535l-5.266-2.487c-1.203-.568-2.615.129-2.916 1.424-2.984 12.826-2.885 25.367 1.39 37.523.363 1.033 1.492 1.585 2.541 1.274l46.512-13.771c1.827-.54 2.02-3.052.297-3.865z" fill="#554e56"/><g fill="#fed402"><path d="m426.393 150.676c-7.355-4.378-13.395-10.051-18.054-17.084-3.099-4.678-10.086-4.578-12.905.273-3.937 6.775-9.984 12.364-18.214 16.76-5.18 2.767-5.303 10.226-.256 13.23 7.39 4.398 13.348 10.229 17.684 17.685 2.849 4.9 9.911 5.202 12.975.434 4.716-7.338 11.011-13.419 18.891-18.24 4.862-2.975 4.776-10.142-.121-13.058z"/><path d="m384.935 270.567c-5.281-3.144-9.618-7.217-12.963-12.267-2.225-3.359-7.242-3.287-9.266.196-2.827 4.865-7.169 8.877-13.077 12.034-3.719 1.987-3.807 7.343-.184 9.499 5.306 3.158 9.584 7.344 12.697 12.698 2.046 3.518 7.116 3.735 9.316.312 3.386-5.269 7.906-9.635 13.564-13.097 3.491-2.136 3.429-7.282-.087-9.375z"/><path d="m322.342 203.338c-4.565-2.717-8.314-6.238-11.205-10.603-1.923-2.903-6.26-2.842-8.009.17-2.443 4.205-6.197 7.673-11.304 10.402-3.215 1.717-3.291 6.347-.159 8.211 4.586 2.73 8.284 6.348 10.975 10.976 1.768 3.041 6.151 3.229 8.053.269 2.927-4.554 6.834-8.328 11.725-11.321 3.017-1.846 2.964-6.295-.076-8.104z"/></g><path d="m146.528 167.108h-48.876v-36.861c0-3.852 3.123-6.975 6.975-6.975h34.926c3.852 0 6.975 3.123 6.975 6.975z" fill="#814ba2"/><path d="m126.221 123.273h-21.594c-3.852 0-6.974 3.123-6.974 6.975v36.861h21.594v-36.861c-.001-3.852 3.122-6.975 6.974-6.975z" fill="#6f3f8a"/></g></svg>